<svg width="200" height="31" viewBox="0 0 200 31" fill="none" xmlns="http://www.w3.org/2000/svg">
<g clip-path="url(#clip0_15_8510)">
<path d="M200 0H0V31H200V0Z" fill="#8A8D8F" style="fill:#8A8D8F;fill:color(display-p3 0.5412 0.5529 0.5608);fill-opacity:1;"/>
<path fill-rule="evenodd" clip-rule="evenodd" d="M176.206 18.6193C177.02 21.9386 179.848 23.2728 183.034 23.2728C186.22 23.2728 189.791 21.8019 189.791 18.1271C189.791 16.4538 189.02 15.0266 187.544 14.2227C186.22 13.5337 184.689 13.2877 183.251 13.0033C182.687 12.8666 181.579 12.7135 181.579 11.9096C181.579 11.1058 182.459 10.9308 183.083 10.9308C184.255 10.9308 185.096 11.3355 185.536 12.4674L189.379 11.2862C188.45 8.6341 185.916 7.5459 183.284 7.5459C181.78 7.5459 180.163 7.83572 178.931 8.70519C177.715 9.56918 176.988 11.0402 176.988 12.533C176.988 16.164 180.364 16.9405 183.224 17.4983C183.902 17.635 185.075 17.81 185.075 18.7451C185.075 19.5926 183.886 19.6801 183.289 19.6801C181.943 19.6801 180.923 19.188 180.526 17.8318L176.217 18.6138" fill="white" style="fill:white;fill-opacity:1;"/>
<path fill-rule="evenodd" clip-rule="evenodd" d="M171.571 7.77557H165.449L163.37 15.8742L161.156 7.77557H155.088V23.0432H158.578V12.1338L161.476 23.0432H164.434L167.197 12.1338L167.235 23.0432H171.571V7.77557Z" fill="white" style="fill:white;fill-opacity:1;"/>
<path fill-rule="evenodd" clip-rule="evenodd" d="M149.368 19.3958H142.54V16.9241H148.071V13.5173H142.54V11.2917H149.368V7.77557H137.992V23.0432H149.368V19.3958Z" fill="white" style="fill:white;fill-opacity:1;"/>
<path fill-rule="evenodd" clip-rule="evenodd" d="M129.769 11.4448H132.885V7.77557H122.171V11.4448H125.357V23.0432H129.769V11.4448Z" fill="white" style="fill:white;fill-opacity:1;"/>
<path fill-rule="evenodd" clip-rule="evenodd" d="M104.407 18.6193C105.227 21.9386 108.054 23.2728 111.235 23.2728C114.415 23.2728 117.992 21.8019 117.992 18.1271C117.992 16.4538 117.221 15.0266 115.739 14.2227C114.404 13.5337 112.89 13.2877 111.452 13.0033C110.877 12.8666 109.775 12.7135 109.775 11.9096C109.775 11.1058 110.659 10.9308 111.273 10.9308C112.445 10.9308 113.281 11.3355 113.726 12.4674L117.569 11.2862C116.64 8.6341 114.106 7.5459 111.468 7.5459C109.965 7.5459 108.358 7.83572 107.115 8.70519C105.9 9.56918 105.172 11.0402 105.172 12.533C105.172 16.164 108.554 16.9405 111.398 17.4983C112.081 17.635 113.259 17.81 113.259 18.7451C113.259 19.5926 112.065 19.6801 111.463 19.6801C110.122 19.6801 109.102 19.188 108.7 17.8318L104.396 18.6138" fill="white" style="fill:white;fill-opacity:1;"/>
<path fill-rule="evenodd" clip-rule="evenodd" d="M101.737 7.77557H97.6662L95.1262 12.801L92.4776 7.77557H87.3704L92.4776 16.5905V23.0432H96.9878V16.5905L101.737 7.77557Z" fill="white" style="fill:white;fill-opacity:1;"/>
<path fill-rule="evenodd" clip-rule="evenodd" d="M70.5997 18.6193C71.4193 21.9386 74.247 23.2728 77.4274 23.2728C80.6079 23.2728 84.19 21.8019 84.19 18.1271C84.19 16.4538 83.4193 15.0266 81.9322 14.2227C80.6079 13.5337 79.0882 13.2877 77.6499 13.0033C77.0746 12.8666 75.9729 12.7135 75.9729 11.9096C75.9729 11.1058 76.8575 10.9308 77.4763 10.9308C78.6432 10.9308 79.4844 11.3355 79.9294 12.4674L83.7666 11.2862C82.8494 8.6341 80.2985 7.5459 77.6771 7.5459C76.1791 7.5459 74.5563 7.83572 73.3297 8.70519C72.1086 9.56918 71.3813 11.0402 71.3813 12.533C71.3813 16.164 74.7626 16.9405 77.6119 17.4983C78.2958 17.635 79.4681 17.81 79.4681 18.7451C79.4681 19.5926 78.2687 19.6801 77.6771 19.6801C76.3311 19.6801 75.3107 19.188 74.9145 17.8318L70.6052 18.6138" fill="white" style="fill:white;fill-opacity:1;"/>
<path fill-rule="evenodd" clip-rule="evenodd" d="M59.0122 19.3958H52.1845V16.9241H57.7042V13.5173H52.1845V11.2917H59.0122V7.77557H47.6255V23.0432H59.0122V19.3958Z" fill="white" style="fill:white;fill-opacity:1;"/>
<path fill-rule="evenodd" clip-rule="evenodd" d="M33.0421 7.77557L28.3419 23.0486H32.1248L33.0475 20.0465H37.0963L37.9593 23.0486H42.7028L37.9593 7.77557H33.0421ZM33.8182 16.7054L35.0502 12.2705L36.2931 16.7054H33.8182Z" fill="white" style="fill:white;fill-opacity:1;"/>
<path fill-rule="evenodd" clip-rule="evenodd" d="M21.1615 15.1414C22.7083 14.7477 23.7286 13.3861 23.7286 11.7784C23.7286 10.5316 23.1316 9.28483 22.1167 8.5466C21.1615 7.85759 19.9891 7.7701 18.8385 7.7701H11.4355V23.0432H18.3826C19.7503 23.0432 21.384 23.0213 22.5509 22.1737C23.6364 21.3972 24.1085 19.9262 24.1085 18.6138C24.1085 16.7874 22.9091 15.4476 21.1615 15.1414ZM15.7015 11.0456H17.5142C18.4043 11.0456 19.327 11.1987 19.327 12.3416C19.327 12.6916 19.175 13.0799 18.8874 13.3423C18.5563 13.654 18.0244 13.6376 17.5848 13.6376H15.7069V11.0511L15.7015 11.0456ZM19.0611 19.352C18.6866 19.6637 18.1764 19.6419 17.7151 19.6419H15.7069V16.8803H17.5414C17.9539 16.8803 18.4858 16.8803 18.8874 17.0827C19.327 17.3069 19.6147 17.7662 19.6147 18.2857C19.6147 18.7122 19.3976 19.106 19.0611 19.352Z" fill="white" style="fill:white;fill-opacity:1;"/>
</g>
<defs>
<clipPath id="clip0_15_8510">
<rect width="200" height="31" fill="white" style="fill:white;fill-opacity:1;"/>
</clipPath>
</defs>
</svg>
